<mxfile host="app.diagrams.net" agent="Mozilla/5.0 (Windows NT 10.0; Win64; x64) AppleWebKit/537.36 (KHTML, like Gecko) Chrome/133.0.0.0 Safari/537.36" version="26.0.16">
  <diagram name="Sayfa -1" id="09Vlm7b3PNcZJvu82gig">
    <mxGraphModel dx="2514" dy="2077" grid="1" gridSize="10" guides="1" tooltips="1" connect="1" arrows="1" fold="1" page="1" pageScale="1" pageWidth="827" pageHeight="1169" math="0" shadow="0">
      <root>
        <mxCell id="0" />
        <mxCell id="1" parent="0" />
        <mxCell id="zQ9TkwUf__TTd-M5q0hD-3" value="" style="edgeStyle=orthogonalEdgeStyle;rounded=0;orthogonalLoop=1;jettySize=auto;html=1;" edge="1" parent="1" source="zQ9TkwUf__TTd-M5q0hD-1" target="zQ9TkwUf__TTd-M5q0hD-2">
          <mxGeometry relative="1" as="geometry" />
        </mxCell>
        <mxCell id="zQ9TkwUf__TTd-M5q0hD-5" value="" style="edgeStyle=orthogonalEdgeStyle;rounded=0;orthogonalLoop=1;jettySize=auto;html=1;" edge="1" parent="1" source="zQ9TkwUf__TTd-M5q0hD-1" target="zQ9TkwUf__TTd-M5q0hD-4">
          <mxGeometry relative="1" as="geometry" />
        </mxCell>
        <mxCell id="zQ9TkwUf__TTd-M5q0hD-1" value="Hazır stok var mı ?" style="rounded=1;whiteSpace=wrap;html=1;" vertex="1" parent="1">
          <mxGeometry x="-497" y="-400" width="110" height="60" as="geometry" />
        </mxCell>
        <mxCell id="zQ9TkwUf__TTd-M5q0hD-20" value="" style="edgeStyle=orthogonalEdgeStyle;rounded=0;orthogonalLoop=1;jettySize=auto;html=1;" edge="1" parent="1" source="zQ9TkwUf__TTd-M5q0hD-2" target="zQ9TkwUf__TTd-M5q0hD-19">
          <mxGeometry relative="1" as="geometry" />
        </mxCell>
        <mxCell id="zQ9TkwUf__TTd-M5q0hD-2" value="Daha büyük ebatlarda malzeme stoğu var mı ?" style="whiteSpace=wrap;html=1;rounded=1;" vertex="1" parent="1">
          <mxGeometry x="-499.5" y="-300" width="115" height="60" as="geometry" />
        </mxCell>
        <mxCell id="zQ9TkwUf__TTd-M5q0hD-9" value="" style="edgeStyle=orthogonalEdgeStyle;rounded=0;orthogonalLoop=1;jettySize=auto;html=1;" edge="1" parent="1" source="zQ9TkwUf__TTd-M5q0hD-4" target="zQ9TkwUf__TTd-M5q0hD-8">
          <mxGeometry relative="1" as="geometry">
            <Array as="points">
              <mxPoint x="-140" y="-370" />
              <mxPoint x="-140" y="-140" />
            </Array>
          </mxGeometry>
        </mxCell>
        <mxCell id="zQ9TkwUf__TTd-M5q0hD-11" value="" style="edgeStyle=orthogonalEdgeStyle;rounded=0;orthogonalLoop=1;jettySize=auto;html=1;entryX=1;entryY=0.5;entryDx=0;entryDy=0;" edge="1" parent="1" source="zQ9TkwUf__TTd-M5q0hD-4" target="zQ9TkwUf__TTd-M5q0hD-2">
          <mxGeometry relative="1" as="geometry">
            <mxPoint x="-257" y="-260" as="targetPoint" />
            <Array as="points">
              <mxPoint x="-257" y="-270" />
            </Array>
          </mxGeometry>
        </mxCell>
        <mxCell id="zQ9TkwUf__TTd-M5q0hD-4" value="Yeterli mi ?" style="whiteSpace=wrap;html=1;rounded=1;" vertex="1" parent="1">
          <mxGeometry x="-317" y="-400" width="120" height="60" as="geometry" />
        </mxCell>
        <mxCell id="zQ9TkwUf__TTd-M5q0hD-6" value="Evet" style="text;html=1;align=center;verticalAlign=middle;whiteSpace=wrap;rounded=0;" vertex="1" parent="1">
          <mxGeometry x="-377" y="-390" width="40" height="20" as="geometry" />
        </mxCell>
        <mxCell id="zQ9TkwUf__TTd-M5q0hD-7" value="Hayır" style="text;html=1;align=center;verticalAlign=middle;whiteSpace=wrap;rounded=0;" vertex="1" parent="1">
          <mxGeometry x="-437" y="-330" width="40" height="20" as="geometry" />
        </mxCell>
        <mxCell id="zQ9TkwUf__TTd-M5q0hD-59" value="" style="edgeStyle=orthogonalEdgeStyle;rounded=0;orthogonalLoop=1;jettySize=auto;html=1;" edge="1" parent="1" source="zQ9TkwUf__TTd-M5q0hD-8" target="zQ9TkwUf__TTd-M5q0hD-58">
          <mxGeometry relative="1" as="geometry" />
        </mxCell>
        <mxCell id="zQ9TkwUf__TTd-M5q0hD-62" value="" style="edgeStyle=orthogonalEdgeStyle;rounded=0;orthogonalLoop=1;jettySize=auto;html=1;" edge="1" parent="1" source="zQ9TkwUf__TTd-M5q0hD-8" target="zQ9TkwUf__TTd-M5q0hD-61">
          <mxGeometry relative="1" as="geometry" />
        </mxCell>
        <mxCell id="zQ9TkwUf__TTd-M5q0hD-8" value="En önemli termin bu mu?" style="whiteSpace=wrap;html=1;rounded=1;" vertex="1" parent="1">
          <mxGeometry x="-657" y="-170" width="120" height="60" as="geometry" />
        </mxCell>
        <mxCell id="zQ9TkwUf__TTd-M5q0hD-12" value="Evet" style="text;html=1;align=center;verticalAlign=middle;whiteSpace=wrap;rounded=0;" vertex="1" parent="1">
          <mxGeometry x="-237" y="-160" width="40" height="20" as="geometry" />
        </mxCell>
        <mxCell id="zQ9TkwUf__TTd-M5q0hD-13" value="Hayır" style="text;html=1;align=center;verticalAlign=middle;whiteSpace=wrap;rounded=0;" vertex="1" parent="1">
          <mxGeometry x="-297" y="-300" width="40" height="20" as="geometry" />
        </mxCell>
        <mxCell id="zQ9TkwUf__TTd-M5q0hD-15" value="Rulo kesilecek&lt;div&gt;&lt;b&gt;&lt;font style=&quot;color: light-dark(rgb(255, 0, 0), rgb(237, 237, 237));&quot;&gt;(RULO KESİM PROBLEMİ)&lt;/font&gt;&lt;/b&gt;&lt;/div&gt;" style="whiteSpace=wrap;html=1;rounded=1;" vertex="1" parent="1">
          <mxGeometry x="-827" y="-300" width="120" height="60" as="geometry" />
        </mxCell>
        <mxCell id="zQ9TkwUf__TTd-M5q0hD-25" value="" style="edgeStyle=orthogonalEdgeStyle;rounded=0;orthogonalLoop=1;jettySize=auto;html=1;" edge="1" parent="1" source="zQ9TkwUf__TTd-M5q0hD-19">
          <mxGeometry relative="1" as="geometry">
            <mxPoint x="-707" y="-270" as="targetPoint" />
          </mxGeometry>
        </mxCell>
        <mxCell id="zQ9TkwUf__TTd-M5q0hD-56" value="" style="edgeStyle=orthogonalEdgeStyle;rounded=0;orthogonalLoop=1;jettySize=auto;html=1;" edge="1" parent="1" source="zQ9TkwUf__TTd-M5q0hD-19">
          <mxGeometry relative="1" as="geometry">
            <mxPoint x="-597" y="-170" as="targetPoint" />
            <Array as="points">
              <mxPoint x="-597" y="-180" />
              <mxPoint x="-597" y="-180" />
            </Array>
          </mxGeometry>
        </mxCell>
        <mxCell id="zQ9TkwUf__TTd-M5q0hD-19" value="Yeterli mi ?" style="whiteSpace=wrap;html=1;rounded=1;" vertex="1" parent="1">
          <mxGeometry x="-657" y="-300" width="120" height="60" as="geometry" />
        </mxCell>
        <mxCell id="zQ9TkwUf__TTd-M5q0hD-23" value="Hayır" style="text;html=1;align=center;verticalAlign=middle;whiteSpace=wrap;rounded=0;" vertex="1" parent="1">
          <mxGeometry x="-700" y="-295" width="40" height="20" as="geometry" />
        </mxCell>
        <mxCell id="zQ9TkwUf__TTd-M5q0hD-26" value="Evet" style="text;html=1;align=center;verticalAlign=middle;whiteSpace=wrap;rounded=0;" vertex="1" parent="1">
          <mxGeometry x="-537" y="-290" width="40" height="20" as="geometry" />
        </mxCell>
        <mxCell id="zQ9TkwUf__TTd-M5q0hD-29" value="" style="edgeStyle=orthogonalEdgeStyle;rounded=0;orthogonalLoop=1;jettySize=auto;html=1;entryX=0.5;entryY=0;entryDx=0;entryDy=0;" edge="1" parent="1" source="zQ9TkwUf__TTd-M5q0hD-28" target="zQ9TkwUf__TTd-M5q0hD-1">
          <mxGeometry relative="1" as="geometry" />
        </mxCell>
        <mxCell id="zQ9TkwUf__TTd-M5q0hD-28" value="Başla" style="rounded=1;whiteSpace=wrap;html=1;" vertex="1" parent="1">
          <mxGeometry x="-497" y="-500" width="110" height="60" as="geometry" />
        </mxCell>
        <mxCell id="zQ9TkwUf__TTd-M5q0hD-32" value="" style="edgeStyle=orthogonalEdgeStyle;rounded=0;orthogonalLoop=1;jettySize=auto;html=1;" edge="1" parent="1" source="zQ9TkwUf__TTd-M5q0hD-30" target="zQ9TkwUf__TTd-M5q0hD-31">
          <mxGeometry relative="1" as="geometry" />
        </mxCell>
        <mxCell id="zQ9TkwUf__TTd-M5q0hD-30" value="Başla" style="whiteSpace=wrap;html=1;rounded=1;" vertex="1" parent="1">
          <mxGeometry x="354" y="-450" width="120" height="60" as="geometry" />
        </mxCell>
        <mxCell id="zQ9TkwUf__TTd-M5q0hD-35" value="" style="edgeStyle=orthogonalEdgeStyle;rounded=0;orthogonalLoop=1;jettySize=auto;html=1;" edge="1" parent="1" source="zQ9TkwUf__TTd-M5q0hD-31" target="zQ9TkwUf__TTd-M5q0hD-34">
          <mxGeometry relative="1" as="geometry" />
        </mxCell>
        <mxCell id="zQ9TkwUf__TTd-M5q0hD-37" value="" style="edgeStyle=orthogonalEdgeStyle;rounded=0;orthogonalLoop=1;jettySize=auto;html=1;" edge="1" parent="1" source="zQ9TkwUf__TTd-M5q0hD-31" target="zQ9TkwUf__TTd-M5q0hD-36">
          <mxGeometry relative="1" as="geometry" />
        </mxCell>
        <mxCell id="zQ9TkwUf__TTd-M5q0hD-31" value="Siparişle birlikte tek seferde kesilebilecek parçalar var mı?" style="whiteSpace=wrap;html=1;rounded=1;" vertex="1" parent="1">
          <mxGeometry x="354" y="-370" width="120" height="60" as="geometry" />
        </mxCell>
        <mxCell id="zQ9TkwUf__TTd-M5q0hD-33" value="STOK PROBLEMİ" style="text;html=1;align=center;verticalAlign=middle;whiteSpace=wrap;rounded=0;fontSize=34;fontStyle=1" vertex="1" parent="1">
          <mxGeometry x="-601.5" y="-570" width="304.5" height="30" as="geometry" />
        </mxCell>
        <mxCell id="zQ9TkwUf__TTd-M5q0hD-42" value="" style="edgeStyle=orthogonalEdgeStyle;rounded=0;orthogonalLoop=1;jettySize=auto;html=1;entryX=0.25;entryY=1;entryDx=0;entryDy=0;" edge="1" parent="1" source="zQ9TkwUf__TTd-M5q0hD-34" target="zQ9TkwUf__TTd-M5q0hD-36">
          <mxGeometry relative="1" as="geometry">
            <mxPoint x="534" y="-250" as="targetPoint" />
          </mxGeometry>
        </mxCell>
        <mxCell id="zQ9TkwUf__TTd-M5q0hD-44" value="" style="edgeStyle=orthogonalEdgeStyle;rounded=0;orthogonalLoop=1;jettySize=auto;html=1;" edge="1" parent="1" source="zQ9TkwUf__TTd-M5q0hD-34" target="zQ9TkwUf__TTd-M5q0hD-43">
          <mxGeometry relative="1" as="geometry" />
        </mxCell>
        <mxCell id="zQ9TkwUf__TTd-M5q0hD-34" value="Siparişi çok tekrarlanan parçalar mı ?" style="whiteSpace=wrap;html=1;rounded=1;" vertex="1" parent="1">
          <mxGeometry x="354" y="-280" width="120" height="60" as="geometry" />
        </mxCell>
        <mxCell id="zQ9TkwUf__TTd-M5q0hD-36" value="Tekli kalıp kesim" style="whiteSpace=wrap;html=1;rounded=1;" vertex="1" parent="1">
          <mxGeometry x="534" y="-370" width="120" height="60" as="geometry" />
        </mxCell>
        <mxCell id="zQ9TkwUf__TTd-M5q0hD-38" value="Hayır" style="text;html=1;align=center;verticalAlign=middle;whiteSpace=wrap;rounded=0;" vertex="1" parent="1">
          <mxGeometry x="484" y="-360" width="40" height="20" as="geometry" />
        </mxCell>
        <mxCell id="zQ9TkwUf__TTd-M5q0hD-39" value="Evet" style="text;html=1;align=center;verticalAlign=middle;whiteSpace=wrap;rounded=0;" vertex="1" parent="1">
          <mxGeometry x="414" y="-305" width="40" height="20" as="geometry" />
        </mxCell>
        <mxCell id="zQ9TkwUf__TTd-M5q0hD-40" value="RULO KESİM PROBLEMİ" style="text;html=1;align=center;verticalAlign=middle;whiteSpace=wrap;rounded=0;fontSize=34;fontStyle=1" vertex="1" parent="1">
          <mxGeometry x="174" y="-570" width="480" height="30" as="geometry" />
        </mxCell>
        <mxCell id="zQ9TkwUf__TTd-M5q0hD-48" value="" style="edgeStyle=orthogonalEdgeStyle;rounded=0;orthogonalLoop=1;jettySize=auto;html=1;entryX=0.568;entryY=1.058;entryDx=0;entryDy=0;entryPerimeter=0;" edge="1" parent="1" source="zQ9TkwUf__TTd-M5q0hD-43" target="zQ9TkwUf__TTd-M5q0hD-36">
          <mxGeometry relative="1" as="geometry">
            <mxPoint x="534" y="-160" as="targetPoint" />
          </mxGeometry>
        </mxCell>
        <mxCell id="zQ9TkwUf__TTd-M5q0hD-51" value="" style="edgeStyle=orthogonalEdgeStyle;rounded=0;orthogonalLoop=1;jettySize=auto;html=1;" edge="1" parent="1" source="zQ9TkwUf__TTd-M5q0hD-43" target="zQ9TkwUf__TTd-M5q0hD-50">
          <mxGeometry relative="1" as="geometry" />
        </mxCell>
        <mxCell id="zQ9TkwUf__TTd-M5q0hD-43" value="Kalan malzemelerin tamamı hurda olacak mı ?" style="whiteSpace=wrap;html=1;rounded=1;" vertex="1" parent="1">
          <mxGeometry x="354" y="-190" width="120" height="60" as="geometry" />
        </mxCell>
        <mxCell id="zQ9TkwUf__TTd-M5q0hD-45" value="Evet" style="text;html=1;align=center;verticalAlign=middle;whiteSpace=wrap;rounded=0;" vertex="1" parent="1">
          <mxGeometry x="414" y="-215" width="40" height="20" as="geometry" />
        </mxCell>
        <mxCell id="zQ9TkwUf__TTd-M5q0hD-46" value="Hayır" style="text;html=1;align=center;verticalAlign=middle;whiteSpace=wrap;rounded=0;" vertex="1" parent="1">
          <mxGeometry x="484" y="-270" width="40" height="20" as="geometry" />
        </mxCell>
        <mxCell id="zQ9TkwUf__TTd-M5q0hD-49" value="Evet" style="text;html=1;align=center;verticalAlign=middle;whiteSpace=wrap;rounded=0;" vertex="1" parent="1">
          <mxGeometry x="484" y="-180" width="40" height="20" as="geometry" />
        </mxCell>
        <mxCell id="zQ9TkwUf__TTd-M5q0hD-50" value="Çoklu kalıp kesim" style="whiteSpace=wrap;html=1;rounded=1;" vertex="1" parent="1">
          <mxGeometry x="354" y="-90" width="120" height="60" as="geometry" />
        </mxCell>
        <mxCell id="zQ9TkwUf__TTd-M5q0hD-52" value="Hayır" style="text;html=1;align=center;verticalAlign=middle;whiteSpace=wrap;rounded=0;" vertex="1" parent="1">
          <mxGeometry x="414" y="-120" width="40" height="20" as="geometry" />
        </mxCell>
        <mxCell id="zQ9TkwUf__TTd-M5q0hD-57" value="Evet" style="text;html=1;align=center;verticalAlign=middle;whiteSpace=wrap;rounded=0;" vertex="1" parent="1">
          <mxGeometry x="-600" y="-210" width="40" height="20" as="geometry" />
        </mxCell>
        <mxCell id="zQ9TkwUf__TTd-M5q0hD-58" value="Sevkiyat" style="whiteSpace=wrap;html=1;rounded=1;" vertex="1" parent="1">
          <mxGeometry x="-657" y="-60" width="120" height="60" as="geometry" />
        </mxCell>
        <mxCell id="zQ9TkwUf__TTd-M5q0hD-60" value="Evet" style="text;html=1;align=center;verticalAlign=middle;whiteSpace=wrap;rounded=0;" vertex="1" parent="1">
          <mxGeometry x="-600" y="-90" width="40" height="20" as="geometry" />
        </mxCell>
        <mxCell id="zQ9TkwUf__TTd-M5q0hD-61" value="Bekle" style="whiteSpace=wrap;html=1;rounded=1;" vertex="1" parent="1">
          <mxGeometry x="-827" y="-170" width="120" height="60" as="geometry" />
        </mxCell>
        <mxCell id="zQ9TkwUf__TTd-M5q0hD-63" value="Hayır" style="text;html=1;align=center;verticalAlign=middle;whiteSpace=wrap;rounded=0;" vertex="1" parent="1">
          <mxGeometry x="-697" y="-160" width="40" height="20" as="geometry" />
        </mxCell>
      </root>
    </mxGraphModel>
  </diagram>
</mxfile>
